<?xml version="1.0" encoding="UTF-8"?>
<!DOCTYPE svg PUBLIC "-//W3C//DTD SVG 1.1//EN" "http://www.w3.org/Graphics/SVG/1.1/DTD/svg11.dtd">
<svg xmlns="http://www.w3.org/2000/svg" version="1.1" width="580px" height="386px" style="shape-rendering:geometricPrecision; text-rendering:geometricPrecision; image-rendering:optimizeQuality; fill-rule:evenodd; clip-rule:evenodd" xmlns:xlink="http://www.w3.org/1999/xlink">
<g><path style="opacity:0.024" fill="#005200" d="M 378.5,119.5 C 379.833,120.167 379.833,120.167 378.5,119.5 Z"/></g>
<g><path style="opacity:0.008" fill="#000000" d="M 382.5,119.5 C 383.833,120.167 383.833,120.167 382.5,119.5 Z"/></g>
<g><path style="opacity:1" fill="#013a6a" d="M 200.5,127.5 C 200.5,147.833 200.5,168.167 200.5,188.5C 209.192,188.169 217.859,188.502 226.5,189.5C 227.136,191.78 228.136,193.78 229.5,195.5C 231.341,197.849 232.674,200.515 233.5,203.5C 236.021,208.866 239.188,213.866 243,218.5C 245.766,221.777 248.933,224.443 252.5,226.5C 259.669,233.986 268.003,239.986 277.5,244.5C 280.331,245.079 282.664,246.412 284.5,248.5C 285.519,250.101 287.019,251.101 289,251.5C 292.776,249.516 296.61,248.016 300.5,247C 301.26,248.441 301.926,249.941 302.5,251.5C 300.481,253.19 298.481,254.856 296.5,256.5C 294.072,257.212 291.739,258.212 289.5,259.5C 281.622,255.729 273.956,251.729 266.5,247.5C 251.992,239.329 239.992,228.329 230.5,214.5C 227.654,208.642 224.654,202.808 221.5,197C 214.508,196.5 207.508,196.334 200.5,196.5C 200.667,216.503 200.5,236.503 200,256.5C 193.924,257.476 187.758,257.81 181.5,257.5C 181.5,236.167 181.5,214.833 181.5,193.5C 180.167,193.5 178.833,193.5 177.5,193.5C 177.5,211.5 177.5,229.5 177.5,247.5C 171.833,247.5 166.167,247.5 160.5,247.5C 160.5,229.833 160.5,212.167 160.5,194.5C 159.167,194.5 157.833,194.5 156.5,194.5C 156.5,208.5 156.5,222.5 156.5,236.5C 150.413,237.051 144.413,237.051 138.5,236.5C 138.5,223.167 138.5,209.833 138.5,196.5C 132.687,196.938 131.02,194.438 133.5,189C 135.134,188.506 136.801,188.34 138.5,188.5C 138.5,175.5 138.5,162.5 138.5,149.5C 144.31,148.51 150.31,148.177 156.5,148.5C 156.5,162.167 156.5,175.833 156.5,189.5C 157.833,189.5 159.167,189.5 160.5,189.5C 160.667,173.83 160.5,158.163 160,142.5C 159.727,140.899 159.227,139.399 158.5,138C 164.825,137.5 171.158,137.334 177.5,137.5C 177.5,154.5 177.5,171.5 177.5,188.5C 178.833,188.5 180.167,188.5 181.5,188.5C 181.827,167.924 181.493,147.424 180.5,127C 187.346,126.179 194.013,126.346 200.5,127.5 Z"/></g>
<g><path style="opacity:1" fill="#0698e9" d="M 254.5,124.5 C 267.221,123.597 278.887,126.597 289.5,133.5C 305.46,122.954 322.46,121.787 340.5,130C 358.283,142.147 365.283,158.98 361.5,180.5C 358.833,180.5 356.167,180.5 353.5,180.5C 355.326,166.766 352.159,154.433 344,143.5C 330.852,132.884 316.352,130.717 300.5,137C 296.94,139.403 293.273,141.57 289.5,143.5C 286.128,142.299 283.128,140.466 280.5,138C 260.512,128.779 243.678,132.612 230,149.5C 225.467,159.361 223.8,169.361 225,179.5C 222.281,180.444 219.448,180.777 216.5,180.5C 213.144,155.197 222.811,137.197 245.5,126.5C 246.086,126.709 246.586,127.043 247,127.5C 249.378,126.033 251.878,125.033 254.5,124.5 Z"/></g>
<g><path style="opacity:0.835" fill="#3985a0" d="M 397.5,127.5 C 391.167,127.5 384.833,127.5 378.5,127.5C 378.5,147.833 378.5,168.167 378.5,188.5C 369.5,188.5 360.5,188.5 351.5,188.5C 359.984,187.507 368.651,187.174 377.5,187.5C 377.5,167.167 377.5,146.833 377.5,126.5C 383.893,126.793 390.227,126.46 396.5,125.5C 397.298,125.957 397.631,126.624 397.5,127.5 Z"/></g>
<g><path style="opacity:0.964" fill="#5f87bd" d="M 418.5,138.5 C 412.833,138.5 407.167,138.5 401.5,138.5C 406.201,137.301 411.034,136.301 416,135.5C 416.667,136.833 417.333,136.833 418,135.5C 418.483,136.448 418.649,137.448 418.5,138.5 Z"/></g>
<g><path style="opacity:1" fill="#003969" d="M 397.5,127.5 C 397.5,147.833 397.5,168.167 397.5,188.5C 398.833,188.5 400.167,188.5 401.5,188.5C 401.5,171.833 401.5,155.167 401.5,138.5C 407.167,138.5 412.833,138.5 418.5,138.5C 418.5,154.833 418.5,171.167 418.5,187.5C 419.833,187.5 421.167,187.5 422.5,187.5C 422.5,174.833 422.5,162.167 422.5,149.5C 428.167,149.5 433.833,149.5 439.5,149.5C 439.5,162.5 439.5,175.5 439.5,188.5C 441.5,188.5 443.5,188.5 445.5,188.5C 445.5,191.167 445.5,193.833 445.5,196.5C 443.5,196.5 441.5,196.5 439.5,196.5C 439.5,209.5 439.5,222.5 439.5,235.5C 433.833,235.5 428.167,235.5 422.5,235.5C 422.5,221.5 422.5,207.5 422.5,193.5C 421.167,193.5 419.833,193.5 418.5,193.5C 418.5,211.5 418.5,229.5 418.5,247.5C 412.833,247.5 407.167,247.5 401.5,247.5C 401.5,229.833 401.5,212.167 401.5,194.5C 400.167,194.5 398.833,194.5 397.5,194.5C 397.5,215.5 397.5,236.5 397.5,257.5C 391.167,257.5 384.833,257.5 378.5,257.5C 378.5,237.167 378.5,216.833 378.5,196.5C 371.167,196.5 363.833,196.5 356.5,196.5C 356.5,197.5 356.5,198.5 356.5,199.5C 355.21,200.058 354.377,201.058 354,202.5C 353.667,201.5 353.333,200.5 353,199.5C 349.612,201.851 349.112,204.518 351.5,207.5C 350.675,208.386 349.675,208.719 348.5,208.5C 348.785,210.288 348.452,211.955 347.5,213.5C 347.167,211.5 346.833,209.5 346.5,207.5C 345.5,208.833 344.5,210.167 343.5,211.5C 343.846,212.696 344.346,212.696 345,211.5C 346.48,213.663 346.48,215.663 345,217.5C 343.768,215.567 342.602,213.567 341.5,211.5C 343.984,207.204 346.484,202.871 349,198.5C 349.49,197.207 349.657,195.873 349.5,194.5C 349.595,192.214 350.262,190.214 351.5,188.5C 360.5,188.5 369.5,188.5 378.5,188.5C 378.5,168.167 378.5,147.833 378.5,127.5C 384.833,127.5 391.167,127.5 397.5,127.5 Z"/></g>
<g><path style="opacity:0.008" fill="#000000" d="M 441.5,147.5 C 442.833,148.167 442.833,148.167 441.5,147.5 Z"/></g>
<g><path style="opacity:0.012" fill="#000000" d="M 444.5,148.5 C 445.525,148.897 445.692,149.563 445,150.5C 444.536,149.906 444.369,149.239 444.5,148.5 Z"/></g>
<g><path style="opacity:0.016" fill="#003900" d="M 442.5,150.5 C 443.833,151.167 443.833,151.167 442.5,150.5 Z"/></g>
<g><path style="opacity:0.237" fill="#3290c6" d="M 138.5,149.5 C 138.5,162.5 138.5,175.5 138.5,188.5C 136.801,188.34 135.134,188.506 133.5,189C 131.02,194.438 132.687,196.938 138.5,196.5C 138.5,209.833 138.5,223.167 138.5,236.5C 137.669,224.007 137.169,211.34 137,198.5C 136.667,198.833 136.333,199.167 136,199.5C 131.502,196.802 130.335,192.969 132.5,188C 134.134,187.506 135.801,187.34 137.5,187.5C 137.5,186.5 137.5,185.5 137.5,184.5C 133.5,184.167 133.5,183.833 137.5,183.5C 137.172,171.988 137.505,160.654 138.5,149.5 Z"/></g>
<g><path style="opacity:0.944" fill="#3b85b7" d="M 445.5,188.5 C 443.5,188.5 441.5,188.5 439.5,188.5C 439.5,175.5 439.5,162.5 439.5,149.5C 433.833,149.5 428.167,149.5 422.5,149.5C 424.743,148.188 427.41,147.522 430.5,147.5C 433.167,147.667 435.833,147.833 438.5,148C 439.416,148.374 440.25,148.874 441,149.5C 441.525,162.175 441.359,174.842 440.5,187.5C 442.415,187.216 444.081,187.549 445.5,188.5 Z"/></g>
<g><path style="opacity:0.767" fill="#fdfefd" d="M 301.5,201.5 C 301.162,199.146 300.662,196.813 300,194.5C 298.667,197.833 297.333,201.167 296,204.5C 295.23,205.598 294.397,205.598 293.5,204.5C 292.131,199.258 291.131,193.925 290.5,188.5C 290.136,186.307 289.136,184.473 287.5,183C 288.591,180.936 288.758,178.769 288,176.5C 286.662,186.847 284.495,197.18 281.5,207.5C 279.326,208.893 277.493,208.56 276,206.5C 274.911,200.126 273.577,193.793 272,187.5C 270.53,190.764 269.363,194.097 268.5,197.5C 267.05,198.658 266.05,198.158 265.5,196C 263.464,195.546 261.63,194.713 260,193.5C 258.305,195.232 256.972,197.232 256,199.5C 249.247,198.686 242.414,198.186 235.5,198C 234.009,195.978 234.342,194.312 236.5,193C 242.821,192.684 248.821,192.184 254.5,191.5C 256.892,188.278 258.225,184.945 258.5,181.5C 260.284,180.394 262.118,180.394 264,181.5C 266.662,181.221 267.495,180.055 266.5,178C 268.534,174.762 270.2,171.262 271.5,167.5C 273.156,169.46 274.823,171.46 276.5,173.5C 276.277,174.967 275.944,176.467 275.5,178C 276.485,182.493 277.651,186.993 279,191.5C 280.766,186.544 281.266,181.544 280.5,176.5C 282.833,174.659 283.166,172.492 281.5,170C 283.755,167.275 285.088,164.108 285.5,160.5C 284.429,158.376 285.263,157.376 288,157.5C 289.326,157.755 290.326,158.422 291,159.5C 292.316,168.166 293.983,175.832 296,182.5C 296.667,183.833 297.333,183.833 298,182.5C 299.439,180.725 300.439,178.725 301,176.5C 303.338,182.203 305.171,188.036 306.5,194C 308.112,194.72 309.612,194.554 311,193.5C 311.77,185.66 313.27,177.994 315.5,170.5C 317.739,168.88 319.573,169.213 321,171.5C 322.183,178.249 323.683,184.916 325.5,191.5C 331.115,192.289 336.782,192.789 342.5,193C 343.406,194.699 343.739,196.533 343.5,198.5C 335.849,198.408 328.349,198.741 321,199.5C 319.833,198 318.667,196.5 317.5,195C 319.767,193.919 319.934,192.419 318,190.5C 315.391,198.745 313.558,206.911 312.5,215C 311.695,216.972 310.361,218.472 308.5,219.5C 307.183,217.841 305.517,216.674 303.5,216C 304.081,215.107 304.415,214.107 304.5,213C 303.835,208.598 302.835,204.765 301.5,201.5 Z M 262.5,192.5 C 260.915,191.998 260.415,190.998 261,189.5C 262.039,190.244 262.539,191.244 262.5,192.5 Z M 308.5,199.5 C 309.776,200.386 309.776,201.386 308.5,202.5C 307.438,201.575 307.438,200.575 308.5,199.5 Z"/></g>
<g><path style="opacity:0.024" fill="#aaffdc" d="M 277.5,172.5 C 278.573,173.251 278.74,174.251 278,175.5C 277.517,174.552 277.351,173.552 277.5,172.5 Z"/></g>
<g><path style="opacity:0.004" fill="#d2ffef" d="M 279.5,178.5 C 280.833,179.167 280.833,179.167 279.5,178.5 Z"/></g>
<g><path style="opacity:0.008" fill="#000000" d="M 132.5,183.5 C 133.833,184.167 133.833,184.167 132.5,183.5 Z"/></g>
<g><path style="opacity:0.051" fill="#560017" d="M 133.5,185.5 C 134.833,186.167 134.833,186.167 133.5,185.5 Z"/></g>
<g><path style="opacity:0.012" fill="#a4a51c" d="M 446.5,183.5 C 447.598,184.601 447.765,185.934 447,187.5C 446.51,186.207 446.343,184.873 446.5,183.5 Z"/></g>
<g><path style="opacity:0.557" fill="#3595b1" d="M 200.5,127.5 C 201.497,147.326 201.83,167.326 201.5,187.5C 210.192,187.169 218.859,187.502 227.5,188.5C 228.577,190.729 229.244,193.063 229.5,195.5C 228.136,193.78 227.136,191.78 226.5,189.5C 217.859,188.502 209.192,188.169 200.5,188.5C 200.5,168.167 200.5,147.833 200.5,127.5 Z"/></g>
<g><path style="opacity:0.004" fill="#feffeb" d="M 286.5,190.5 C 287.833,191.167 287.833,191.167 286.5,190.5 Z"/></g>
<g><path style="opacity:0.012" fill="#f7f6ee" d="M 289.5,192.5 C 290.525,192.897 290.692,193.563 290,194.5C 289.536,193.906 289.369,193.239 289.5,192.5 Z"/></g>
<g><path style="opacity:0.004" fill="#00fffe" d="M 286.5,195.5 C 287.833,196.167 287.833,196.167 286.5,195.5 Z"/></g>
<g><path style="opacity:0.004" fill="#d9f8eb" d="M 270.5,196.5 C 271.833,197.167 271.833,197.167 270.5,196.5 Z"/></g>
<g><path style="opacity:0.02" fill="#e9fff6" d="M 268.5,197.5 C 269.833,198.167 269.833,198.167 268.5,197.5 Z"/></g>
<g><path style="opacity:0.039" fill="#894900" d="M 132.5,198.5 C 133.833,199.167 133.833,199.167 132.5,198.5 Z"/></g>
<g><path style="opacity:0.004" fill="#feb1fe" d="M 270.5,198.5 C 271.833,199.167 271.833,199.167 270.5,198.5 Z"/></g>
<g><path style="opacity:0.937" fill="#4289a6" d="M 445.5,188.5 C 446.56,191.73 447.227,194.897 447.5,198C 446.322,198.967 444.989,199.467 443.5,199.5C 442.304,199.154 442.304,198.654 443.5,198C 442.552,197.517 441.552,197.351 440.5,197.5C 441.622,210.478 441.622,223.478 440.5,236.5C 434.31,236.823 428.31,236.49 422.5,235.5C 428.167,235.5 433.833,235.5 439.5,235.5C 439.5,222.5 439.5,209.5 439.5,196.5C 441.5,196.5 443.5,196.5 445.5,196.5C 445.5,193.833 445.5,191.167 445.5,188.5 Z"/></g>
<g><path style="opacity:0.471" fill="#3692b1" d="M 230.5,214.5 C 226.564,209.48 223.231,203.98 220.5,198C 214.175,197.5 207.842,197.334 201.5,197.5C 201.667,217.503 201.5,237.503 201,257.5C 194.401,258.826 187.901,258.826 181.5,257.5C 187.758,257.81 193.924,257.476 200,256.5C 200.5,236.503 200.667,216.503 200.5,196.5C 207.508,196.334 214.508,196.5 221.5,197C 224.654,202.808 227.654,208.642 230.5,214.5 Z"/></g>
<g><path style="opacity:0.041" fill="#fffffe" d="M 300.5,201.5 C 299.475,201.103 299.308,200.437 300,199.5C 300.464,200.094 300.631,200.761 300.5,201.5 Z"/></g>
<g><path style="opacity:0.835" fill="#3885a0" d="M 397.5,257.5 C 391.021,258.491 384.354,258.824 377.5,258.5C 377.5,238.167 377.5,217.833 377.5,197.5C 370.219,196.929 363.219,197.595 356.5,199.5C 356.5,198.5 356.5,197.5 356.5,196.5C 363.833,196.5 371.167,196.5 378.5,196.5C 378.5,216.833 378.5,237.167 378.5,257.5C 384.833,257.5 391.167,257.5 397.5,257.5 Z"/></g>
<g><path style="opacity:0.004" fill="#fefdfe" d="M 300.5,201.5 C 300.833,201.5 301.167,201.5 301.5,201.5C 301.315,202.17 300.981,202.17 300.5,201.5 Z"/></g>
<g><path style="opacity:0.004" fill="#00d9f1" d="M 293.5,204.5 C 292.833,205.167 292.833,205.167 293.5,204.5 Z"/></g>
<g><path style="opacity:0.008" fill="#d5fffe" d="M 296.5,205.5 C 297.833,206.167 297.833,206.167 296.5,205.5 Z"/></g>
<g><path style="opacity:0.004" fill="#fece6a" d="M 286.5,206.5 C 287.833,207.167 287.833,207.167 286.5,206.5 Z"/></g>
<g><path style="opacity:0.004" fill="#00ffcc" d="M 299.5,206.5 C 300.833,207.167 300.833,207.167 299.5,206.5 Z"/></g>
<g><path style="opacity:0.004" fill="#fee769" d="M 318.5,206.5 C 319.833,207.167 319.833,207.167 318.5,206.5 Z"/></g>
<g><path style="opacity:0.004" fill="#00ecde" d="M 315.5,207.5 C 316.833,208.167 316.833,208.167 315.5,207.5 Z"/></g>
<g><path style="opacity:0.843" fill="#3783aa" d="M 233.5,203.5 C 239.426,211.433 245.759,219.1 252.5,226.5C 248.933,224.443 245.766,221.777 243,218.5C 239.188,213.866 236.021,208.866 233.5,203.5 Z"/></g>
<g><path style="opacity:1" fill="#22618c" d="M 349.5,194.5 C 349.657,195.873 349.49,197.207 349,198.5C 346.484,202.871 343.984,207.204 341.5,211.5C 342.602,213.567 343.768,215.567 345,217.5C 346.48,215.663 346.48,213.663 345,211.5C 344.346,212.696 343.846,212.696 343.5,211.5C 344.5,210.167 345.5,208.833 346.5,207.5C 346.833,209.5 347.167,211.5 347.5,213.5C 348.452,211.955 348.785,210.288 348.5,208.5C 349.675,208.719 350.675,208.386 351.5,207.5C 349.112,204.518 349.612,201.851 353,199.5C 353.333,200.5 353.667,201.5 354,202.5C 354.377,201.058 355.21,200.058 356.5,199.5C 350.541,214.126 341.208,226.126 328.5,235.5C 332.883,231.121 336.883,226.454 340.5,221.5C 340.14,219.392 339.473,217.392 338.5,215.5C 335.814,217.856 333.147,220.189 330.5,222.5C 337.826,213.851 344.159,204.517 349.5,194.5 Z"/></g>
<g><path style="opacity:0.271" fill="#348ab3" d="M 252.5,226.5 C 260.857,232.532 269.19,238.532 277.5,244.5C 268.003,239.986 259.669,233.986 252.5,226.5 Z"/></g>
<g><path style="opacity:0.024" fill="#ffadfe" d="M 135.5,231.5 C 136.525,231.897 136.692,232.563 136,233.5C 135.536,232.906 135.369,232.239 135.5,231.5 Z"/></g>
<g><path style="opacity:0.004" fill="#93b877" d="M 268.5,233.5 C 269.833,234.167 269.833,234.167 268.5,233.5 Z"/></g>
<g><path style="opacity:0.016" fill="#f280fd" d="M 135.5,234.5 C 136.573,235.251 136.74,236.251 136,237.5C 135.517,236.552 135.351,235.552 135.5,234.5 Z"/></g>
<g><path style="opacity:0.004" fill="#aeff5e" d="M 295.5,239.5 C 296.833,240.167 296.833,240.167 295.5,239.5 Z"/></g>
<g><path style="opacity:0.004" fill="#f783ff" d="M 295.5,241.5 C 296.833,242.167 296.833,242.167 295.5,241.5 Z"/></g>
<g><path style="opacity:0.004" fill="#cbab75" d="M 283.5,244.5 C 284.833,245.167 284.833,245.167 283.5,244.5 Z"/></g>
<g><path style="opacity:1" fill="#144b78" d="M 328.5,235.5 C 319.602,243.295 309.935,250.128 299.5,256C 298.552,256.483 297.552,256.649 296.5,256.5C 298.481,254.856 300.481,253.19 302.5,251.5C 301.926,249.941 301.26,248.441 300.5,247C 296.61,248.016 292.776,249.516 289,251.5C 287.019,251.101 285.519,250.101 284.5,248.5C 286.17,248.751 287.67,249.418 289,250.5C 304.098,242.877 317.932,233.544 330.5,222.5C 333.147,220.189 335.814,217.856 338.5,215.5C 339.473,217.392 340.14,219.392 340.5,221.5C 336.883,226.454 332.883,231.121 328.5,235.5 Z"/></g>
<g><path style="opacity:0.333" fill="#3d83a8" d="M 266.5,247.5 C 273.956,251.729 281.622,255.729 289.5,259.5C 291.739,258.212 294.072,257.212 296.5,256.5C 294.168,259.331 291.168,260.498 287.5,260C 279.775,256.814 272.775,252.647 266.5,247.5 Z"/></g>
<g><path style="opacity:0.02" fill="#a56600" d="M 181.5,260.5 C 182.833,261.167 182.833,261.167 181.5,260.5 Z"/></g>
<g><path style="opacity:0.004" fill="#004100" d="M 200.5,261.5 C 200.897,260.475 201.563,260.308 202.5,261C 201.906,261.464 201.239,261.631 200.5,261.5 Z"/></g>
<g><path style="opacity:0.024" fill="#87001c" d="M 182.5,262.5 C 183.833,263.167 183.833,263.167 182.5,262.5 Z"/></g>
<g><path style="opacity:0.016" fill="#000000" d="M 199.5,262.5 C 200.833,263.167 200.833,263.167 199.5,262.5 Z"/></g>
<g><path style="opacity:0.016" fill="#000000" d="M 205.5,262.5 C 206.833,263.167 206.833,263.167 205.5,262.5 Z"/></g>
<g><path style="opacity:1" fill="#008fe8" d="M 175.5,264.5 C 176.643,267.976 176.81,271.642 176,275.5C 175.5,275 175,274.5 174.5,274C 164.839,273.5 155.172,273.334 145.5,273.5C 145.5,277.167 145.5,280.833 145.5,284.5C 151.842,284.666 158.175,284.5 164.5,284C 165,283.5 165.5,283 166,282.5C 166.667,286.167 166.667,289.833 166,293.5C 165.5,293 165,292.5 164.5,292C 158.175,291.5 151.842,291.334 145.5,291.5C 145.5,295.833 145.5,300.167 145.5,304.5C 155.506,304.666 165.506,304.5 175.5,304C 176,303.5 176.5,303 177,302.5C 177.667,306.167 177.667,309.833 177,313.5C 176.5,313 176,312.5 175.5,312C 161.5,311.667 147.5,311.333 133.5,311C 134,310.5 134.5,310 135,309.5C 135.667,295.833 135.667,282.167 135,268.5C 134.5,268 134,267.5 133.5,267C 147.167,266.667 160.833,266.333 174.5,266C 175.056,265.617 175.389,265.117 175.5,264.5 Z"/></g>
<g><path style="opacity:1" fill="#008fe8" d="M 257.5,272.5 C 258.643,275.976 258.81,279.642 258,283.5C 257.5,283 257,282.5 256.5,282C 248.507,281.5 240.507,281.334 232.5,281.5C 232.5,284.167 232.5,286.833 232.5,289.5C 237.844,289.666 243.177,289.499 248.5,289C 249,288.5 249.5,288 250,287.5C 250.667,291.167 250.667,294.833 250,298.5C 249.5,298 249,297.5 248.5,297C 243.177,296.501 237.844,296.334 232.5,296.5C 232.5,299.167 232.5,301.833 232.5,304.5C 240.84,304.666 249.173,304.5 257.5,304C 258,303.5 258.5,303 259,302.5C 259.667,306.167 259.667,309.833 259,313.5C 258.5,313 258,312.5 257.5,312C 245.5,311.667 233.5,311.333 221.5,311C 222,310.5 222.5,310 223,309.5C 223.667,298.5 223.667,287.5 223,276.5C 222.5,276 222,275.5 221.5,275C 233.167,274.667 244.833,274.333 256.5,274C 257.056,273.617 257.389,273.117 257.5,272.5 Z"/></g>
<g><path style="opacity:1" fill="#008fe8" d="M 354.5,272.5 C 355.643,275.976 355.81,279.642 355,283.5C 354.5,283 354,282.5 353.5,282C 345.507,281.5 337.507,281.334 329.5,281.5C 329.5,284.167 329.5,286.833 329.5,289.5C 334.844,289.666 340.177,289.499 345.5,289C 346,288.5 346.5,288 347,287.5C 347.667,291.167 347.667,294.833 347,298.5C 346.5,298 346,297.5 345.5,297C 340.177,296.501 334.844,296.334 329.5,296.5C 329.5,299.167 329.5,301.833 329.5,304.5C 337.84,304.666 346.173,304.5 354.5,304C 355,303.5 355.5,303 356,302.5C 356.667,306.167 356.667,309.833 356,313.5C 355.5,313 355,312.5 354.5,312C 342.5,311.667 330.5,311.333 318.5,311C 319,310.5 319.5,310 320,309.5C 320.667,298.5 320.667,287.5 320,276.5C 319.5,276 319,275.5 318.5,275C 330.167,274.667 341.833,274.333 353.5,274C 354.056,273.617 354.389,273.117 354.5,272.5 Z"/></g>
<g><path style="opacity:1" fill="#008fe8" d="M 408.5,272.5 C 409.289,272.783 409.956,273.283 410.5,274C 421.5,274.667 432.5,274.667 443.5,274C 444,273.5 444.5,273 445,272.5C 445.667,276.167 445.667,279.833 445,283.5C 444.5,283 444,282.5 443.5,282C 439.514,281.501 435.514,281.334 431.5,281.5C 431.334,290.839 431.5,300.173 432,309.5C 432.5,310 433,310.5 433.5,311C 429.167,311.667 424.833,311.667 420.5,311C 421,310.5 421.5,310 422,309.5C 422.5,300.173 422.666,290.839 422.5,281.5C 418.486,281.334 414.486,281.501 410.5,282C 410,282.5 409.5,283 409,283.5C 408.501,279.848 408.335,276.182 408.5,272.5 Z"/></g>
<g><path style="opacity:1" fill="#008fe8" d="M 183.5,275.5 C 187.646,274.353 191.98,274.186 196.5,275C 196,275.5 195.5,276 195,276.5C 194.5,285.827 194.334,295.161 194.5,304.5C 201.841,304.666 209.174,304.5 216.5,304C 217,303.5 217.5,303 218,302.5C 218.667,306.167 218.667,309.833 218,313.5C 217.5,313 217,312.5 216.5,312C 205.5,311.667 194.5,311.333 183.5,311C 184,310.5 184.5,310 185,309.5C 185.667,298.5 185.667,287.5 185,276.5C 184.617,275.944 184.117,275.611 183.5,275.5 Z"/></g>
<g><path style="opacity:1" fill="#008fe8" d="M 264.5,275.5 C 269.65,274.349 274.984,274.183 280.5,275C 279.446,276.388 279.28,277.888 280,279.5C 283,285.5 286,291.5 289,297.5C 292.841,291.822 296.174,285.822 299,279.5C 299.72,277.888 299.554,276.388 298.5,275C 303.5,274.333 308.5,274.333 313.5,275C 313,275.5 312.5,276 312,276.5C 311.333,287.5 311.333,298.5 312,309.5C 312.5,310 313,310.5 313.5,311C 309.167,311.667 304.833,311.667 300.5,311C 301,310.5 301.5,310 302,309.5C 302.667,302.167 302.667,294.833 302,287.5C 297.667,295.5 293.333,303.5 289,311.5C 284.667,303.5 280.333,295.5 276,287.5C 275.333,294.833 275.333,302.167 276,309.5C 276.5,310 277,310.5 277.5,311C 273.167,311.667 268.833,311.667 264.5,311C 265,310.5 265.5,310 266,309.5C 266.667,298.5 266.667,287.5 266,276.5C 265.617,275.944 265.117,275.611 264.5,275.5 Z"/></g>
<g><path style="opacity:1" fill="#008fe8" d="M 361.5,275.5 C 366.316,274.35 371.316,274.184 376.5,275C 375.833,275.667 375.167,276.333 374.5,277C 380.635,284.136 387.135,290.969 394,297.5C 394.667,290.5 394.667,283.5 394,276.5C 393.5,276 393,275.5 392.5,275C 396.833,274.333 401.167,274.333 405.5,275C 405,275.5 404.5,276 404,276.5C 403.333,287.5 403.333,298.5 404,309.5C 404.5,310 405,310.5 405.5,311C 400.833,311.667 396.167,311.667 391.5,311C 392.167,310.333 392.833,309.667 393.5,309C 386.302,302.136 379.468,294.97 373,287.5C 372.333,294.833 372.333,302.167 373,309.5C 373.5,310 374,310.5 374.5,311C 370.167,311.667 365.833,311.667 361.5,311C 362,310.5 362.5,310 363,309.5C 363.667,298.5 363.667,287.5 363,276.5C 362.617,275.944 362.117,275.611 361.5,275.5 Z"/></g>
</svg>
